# xmcd
#
# Track frame offsets: 
#        150
#        16457
#        29622
#        41942
#        58550
#        73527
#        86260
#        101190
#        118682
#        129682
#        140882
#        164015
#        180880
#        195530
#        208675
#        227677
#        237527
#        254620
#
# Disc length: 3597 seconds
#
# Revision: 0
# Processed by: cddbd v1.4PL0 Copyright (c) Steve Scherf et al.
# Submitted via: ExactAudioCopy v0.95a3
#
DISCID=0f0e0b12
DTITLE=Jose Feliciano - the best of
DYEAR=2003
DGENRE=Ballad
TTITLE0=Light My Fire
TTITLE1=Chico And The Man ( main theme )
TTITLE2=Stay With Me
TTITLE3=Hi - Heel Sneakers
TTITLE4=Hitchcock railway
TTITLE5=Hey! Baby
TTITLE6=My World Is Empty Without You
TTITLE7=Marley Purt Drive
TTITLE8=Rain
TTITLE9=Destiny
TTITLE10=Susie - q
TTITLE11=And The Sun Will Shine
TTITLE12=By The Time I Get To Phoenix
TTITLE13=Don't Let The Sun Catch You Crying
TTITLE14=California Dreamin'
TTITLE15=Here, There And Everywhere
TTITLE16=Daytime Dreams
TTITLE17=Essence Of Your Love
EXTD=
EXTT0=
EXTT1=
EXTT2=
EXTT3=
EXTT4=
EXTT5=
EXTT6=
EXTT7=
EXTT8=
EXTT9=
EXTT10=
EXTT11=
EXTT12=
EXTT13=
EXTT14=
EXTT15=
EXTT16=
EXTT17=
PLAYORDER=
